<svg xmlns="http://www.w3.org/2000/svg" viewBox="0 0 120 120" fill="none">
  <!-- Style A: 簡約柔和 — 明顯雙手捧心 -->
  <circle cx="60" cy="60" r="56" fill="#fce8e4"/>

  <!-- Left hand - palm and fingers -->
  <path d="M18 58 C20 52 28 46 36 48 C40 49 43 52 44 56 L46 64 C46 68 44 72 40 76 L34 82 C30 84 24 82 20 78 C16 74 14 68 16 62 Z"
        fill="#d4a090" stroke="#c4908a" stroke-width="0.5"/>
  <!-- Left fingers -->
  <path d="M36 48 C38 44 40 42 42 44 L44 56" fill="none" stroke="#d4a090" stroke-width="3" stroke-linecap="round"/>
  <path d="M32 47 C33 42 35 40 38 42" fill="none" stroke="#d4a090" stroke-width="2.5" stroke-linecap="round"/>
  <path d="M28 49 C28 44 30 42 33 44" fill="none" stroke="#d4a090" stroke-width="2.5" stroke-linecap="round"/>

  <!-- Right hand - palm and fingers -->
  <path d="M102 58 C100 52 92 46 84 48 C80 49 77 52 76 56 L74 64 C74 68 76 72 80 76 L86 82 C90 84 96 82 100 78 C104 74 106 68 104 62 Z"
        fill="#e0b5a8" stroke="#d4a59a" stroke-width="0.5"/>
  <!-- Right fingers -->
  <path d="M84 48 C82 44 80 42 78 44 L76 56" fill="none" stroke="#e0b5a8" stroke-width="3" stroke-linecap="round"/>
  <path d="M88 47 C87 42 85 40 82 42" fill="none" stroke="#e0b5a8" stroke-width="2.5" stroke-linecap="round"/>
  <path d="M92 49 C92 44 90 42 87 44" fill="none" stroke="#e0b5a8" stroke-width="2.5" stroke-linecap="round"/>

  <!-- Heart (on top of hands) -->
  <path d="M60 82 C60 82 33 63 33 48 C33 39 40 33 49 33 C54 33 58 36 60 40 C62 36 66 33 71 33 C80 33 87 39 87 48 C87 63 60 82 60 82Z"
        fill="#e8776f"/>
  <!-- Heart shine -->
  <ellipse cx="50" cy="45" rx="5" ry="7" fill="white" opacity="0.3" transform="rotate(-12 50 45)"/>
</svg>
